<svg width="1920" height="2174" viewBox="0 0 1920 2174" fill="none" xmlns="http://www.w3.org/2000/svg"><path d="M297.208 1132.74v549.35l-475.751-274.68 475.751-274.67z" stroke="#EBEBEB"/><circle cx="296.896" cy="1681.88" r="5" transform="rotate(-30 296.896 1681.88)" fill="#F2F2F2"/><circle cx="297.053" cy="1132.15" r="5" transform="rotate(-30 297.053 1132.15)" fill="#F2F2F2"/><path d="M1312.62 1109.62L836.874 1384.3V834.95l475.746 274.67z" stroke="#EBEBEB"/><circle cx="836.739" cy="834.198" r="5" transform="rotate(30 836.739 834.198)" fill="#F2F2F2"/><circle cx="836.896" cy="1383.93" r="5" transform="rotate(30 836.896 1383.93)" fill="#F2F2F2"/><circle cx="1313.05" cy="1109.2" r="5" transform="rotate(30 1313.05 1109.2)" fill="#F2F2F2"/><path d="M425.594 574.381v256.396L203.549 702.579l222.045-128.198zM1668.56 1246.78V990.381l222.05 128.199-222.05 128.2z" stroke="#EBEBEB"/></svg>