<svg width="1920" height="1557" viewBox="0 0 1920 1557" fill="none" xmlns="http://www.w3.org/2000/svg">
<path d="M1337.56 886.272L842.486 886.272L1090.02 457.522L1337.56 886.272Z" stroke="#EBEBEB"/>
<circle cx="1090.26" cy="456.776" r="4.50759" transform="rotate(60 1090.26 456.776)" fill="#F2F2F2"/>
<circle cx="842.586" cy="886.04" r="4.50759" transform="rotate(60 842.586 886.04)" fill="#F2F2F2"/>
<circle cx="1338.18" cy="886.181" r="4.50759" transform="rotate(60 1338.18 886.181)" fill="#F2F2F2"/>
<path d="M1553.81 1153.79L1669.29 953.765L1784.78 1153.79H1553.81Z" stroke="#EBEBEB"/>
<path d="M886.292 68.6498L770.805 268.68L655.318 68.6498L886.292 68.6498Z" stroke="#EBEBEB"/>
<path d="M534.372 446.708L286.833 875.458L39.2944 446.708L534.372 446.708Z" stroke="#EBEBEB"/>
<circle cx="38.7654" cy="446.133" r="4.50759" fill="#F2F2F2"/>
<circle cx="286.682" cy="875.255" r="4.50759" fill="#F2F2F2"/>
<circle cx="534.6" cy="446.133" r="4.50759" fill="#F2F2F2"/>
</svg>
