<svg width="1884" height="1696" viewBox="0 0 1884 1696" fill="none" xmlns="http://www.w3.org/2000/svg"><path d="M1302.3 413.322l-275.37 475.354-273.984-476.148 549.354.794z" stroke="#EBEBEB"/><circle cx="752.455" cy="411.944" r="5" transform="rotate(.083 752.455 411.944)" fill="#F2F2F2"/><circle cx="1026.77" cy="888.341" r="5" transform="rotate(.083 1026.77 888.341)" fill="#F2F2F2"/><circle cx="1302.45" cy="412.739" r="5" transform="rotate(.083 1302.45 412.739)" fill="#F2F2F2"/><path d="M433.713 939.792L707.7 1415.94l-549.349-.79 275.362-475.358z" stroke="#EBEBEB"/><circle cx="157.599" cy="1415.28" r="5" transform="rotate(-59.917 157.599 1415.28)" fill="#F2F2F2"/><circle cx="707.327" cy="1415.92" r="5" transform="rotate(-59.917 707.327 1415.92)" fill="#F2F2F2"/><circle cx="433.288" cy="939.363" r="5" transform="rotate(-59.917 433.288 939.363)" fill="#F2F2F2"/><path d="M1679.21 354.675l-127.88-222.231 256.4.371-128.52 221.86zm-1412.697 37.13L394.39 614.036l-256.396-.371 128.519-221.86z" stroke="#EBEBEB"/></svg>