<svg width="1884" height="1696" viewBox="0 0 1884 1696" fill="none" xmlns="http://www.w3.org/2000/svg">
<path d="M1302.3 413.322L1026.93 888.676L752.946 412.528L1302.3 413.322Z" stroke="#EBEBEB"/>
<circle cx="752.455" cy="411.944" r="5" transform="rotate(0.0828344 752.455 411.944)" fill="#F2F2F2"/>
<circle cx="1026.77" cy="888.341" r="5" transform="rotate(0.0828344 1026.77 888.341)" fill="#F2F2F2"/>
<circle cx="1302.45" cy="412.739" r="5" transform="rotate(0.0828344 1302.45 412.739)" fill="#F2F2F2"/>
<path d="M433.713 939.792L707.7 1415.94L158.351 1415.15L433.713 939.792Z" stroke="#EBEBEB"/>
<circle cx="157.599" cy="1415.28" r="5" transform="rotate(-59.9172 157.599 1415.28)" fill="#F2F2F2"/>
<circle cx="707.327" cy="1415.92" r="5" transform="rotate(-59.9172 707.327 1415.92)" fill="#F2F2F2"/>
<circle cx="433.288" cy="939.363" r="5" transform="rotate(-59.9172 433.288 939.363)" fill="#F2F2F2"/>
<path d="M1679.21 354.675L1551.33 132.444L1807.73 132.815L1679.21 354.675Z" stroke="#EBEBEB"/>
<path d="M266.513 391.805L394.39 614.036L137.994 613.665L266.513 391.805Z" stroke="#EBEBEB"/>
</svg>
